<svg clip-rule="evenodd" fill-rule="evenodd" stroke-linejoin="round" stroke-miterlimit="2" viewBox="0 0 500 272" xmlns="http://www.w3.org/2000/svg" xmlns:xlink="http://www.w3.org/1999/xlink"><linearGradient id="a" gradientTransform="matrix(84.861 157.208 -157.208 84.861 220.518 126.419)" gradientUnits="userSpaceOnUse" x1="0" x2="1" y1="0" y2="0"><stop offset="0" stop-color="#295da6"/><stop offset="1" stop-color="#ffc936"/></linearGradient><g fill="url(#a)" fill-rule="nonzero" transform="matrix(1.89891 0 -0 1.89891 -217.271 -157.506)"><path d="m114.322 142.928v-60.03h14.966v34.209h-1.973c0-4.605.575-8.47 1.726-11.595 1.152-3.125 2.837-5.482 5.058-7.072 2.22-1.59 4.975-2.385 8.264-2.385h.658c4.934 0 8.703 1.782 11.307 5.345 2.604 3.564 3.906 8.799 3.906 15.707v25.821h-14.966v-26.397c0-2.083-.631-3.796-1.892-5.14-1.261-1.343-2.933-2.014-5.016-2.014s-3.783.671-5.098 2.014c-1.316 1.344-1.974 3.112-1.974 5.304v26.233z"/><path d="m194.416 142.928v-13.322h-2.467v-14.226c0-2.084-.479-3.632-1.439-4.646-.959-1.015-2.535-1.522-4.728-1.522-1.042 0-2.577.028-4.605.082-2.028.055-4.166.138-6.414.247-2.248.11-4.304.219-6.168.329v-12.499c1.316-.11 2.879-.22 4.688-.329 1.809-.11 3.686-.192 5.633-.247 1.946-.055 3.741-.082 5.386-.082 4.66 0 8.621.685 11.882 2.056 3.262 1.37 5.757 3.426 7.484 6.167s2.59 6.222 2.59 10.444v27.548zm-14.39 1.151c-3.18 0-6.003-.576-8.47-1.727s-4.4-2.81-5.798-4.975c-1.398-2.166-2.097-4.756-2.097-7.771 0-3.399.905-6.154 2.714-8.264 1.809-2.111 4.304-3.66 7.483-4.647 3.18-.986 6.826-1.48 10.937-1.48h8.799v7.73h-8.799c-2.028 0-3.591.507-4.687 1.521-1.096 1.015-1.645 2.371-1.645 4.071 0 1.645.549 2.974 1.645 3.988s2.659 1.522 4.687 1.522c1.316 0 2.481-.233 3.495-.699s1.85-1.275 2.508-2.426c.658-1.152 1.042-2.741 1.151-4.77l3.454 3.289c-.274 3.125-1.028 5.77-2.261 7.936-1.234 2.165-2.933 3.824-5.099 4.975-2.165 1.151-4.838 1.727-8.017 1.727z"/><path d="m229.448 144.408c-5.154 0-9.142-1.686-11.965-5.057-2.824-3.372-4.235-8.539-4.235-15.501v-26.315h14.966v26.726c0 2.028.603 3.673 1.809 4.934s2.824 1.891 4.852 1.891 3.673-.63 4.934-1.891 1.891-2.961 1.891-5.099v-26.561h14.967v45.393h-11.842v-19.078h.822c0 4.66-.589 8.511-1.768 11.553-1.178 3.043-2.919 5.304-5.221 6.785-2.303 1.48-5.154 2.22-8.553 2.22z"/><path d="m283.886 144.408c-6.579 0-11.76-1.357-15.542-4.071-3.783-2.713-5.811-6.537-6.086-11.471h13.158c.219 1.37 1.069 2.549 2.549 3.536s3.563 1.48 6.25 1.48c1.918 0 3.577-.288 4.975-.863 1.398-.576 2.097-1.522 2.097-2.837 0-1.152-.549-2.097-1.645-2.837-1.097-.741-3.097-1.248-6.003-1.522l-3.125-.329c-5.811-.603-10.087-2.193-12.828-4.769-2.741-2.577-4.112-5.811-4.112-9.704 0-3.344.822-6.099 2.467-8.264s3.92-3.796 6.825-4.893c2.906-1.096 6.223-1.645 9.951-1.645 6.085 0 10.991 1.33 14.719 3.989s5.702 6.482 5.921 11.471h-13.157c-.219-1.37-.96-2.535-2.22-3.495-1.261-.959-3.071-1.439-5.428-1.439-1.699 0-3.084.302-4.153.905s-1.603 1.453-1.603 2.549c0 1.151.507 2.001 1.521 2.549s2.645.96 4.893 1.234l3.125.329c5.811.603 10.293 2.206 13.445 4.81s4.728 6.017 4.728 10.238c0 3.125-.836 5.811-2.508 8.059s-4.057 3.975-7.154 5.181-6.784 1.809-11.06 1.809z"/><path d="m143.597 209.182c-3.728 0-6.976-.768-9.745-2.303-2.768-1.535-4.934-3.782-6.496-6.743-1.563-2.96-2.399-6.578-2.508-10.854h1.315v18.42h-11.841v-60.03h14.966v30.919l-3.289 3.29c.164-4.441 1.014-8.224 2.549-11.348 1.535-3.125 3.659-5.496 6.373-7.114 2.714-1.617 5.852-2.425 9.416-2.425 3.07 0 5.838.561 8.305 1.685s4.564 2.714 6.291 4.77 3.056 4.481 3.988 7.277 1.398 5.866 1.398 9.21v1.974c0 3.344-.466 6.428-1.398 9.251-.932 2.824-2.302 5.291-4.111 7.401-1.809 2.111-3.989 3.742-6.538 4.893s-5.441 1.727-8.675 1.727zm-4.276-12.335c1.973 0 3.714-.507 5.221-1.521 1.508-1.015 2.687-2.426 3.536-4.235.85-1.809 1.275-3.865 1.275-6.168 0-2.357-.425-4.399-1.275-6.126-.849-1.727-2.014-3.07-3.495-4.029-1.48-.96-3.234-1.44-5.262-1.44-1.81 0-3.495.412-5.058 1.234-1.562.822-2.837 2.028-3.824 3.618-.986 1.59-1.48 3.509-1.48 5.756v2.796c0 2.138.521 3.961 1.563 5.469 1.041 1.507 2.357 2.659 3.947 3.454s3.207 1.192 4.852 1.192z"/><path d="m186.193 209.182c-5.153 0-9.141-1.686-11.965-5.057-2.823-3.372-4.235-8.539-4.235-15.501v-26.315h14.967v26.726c0 2.028.603 3.673 1.809 4.934s2.823 1.891 4.852 1.891c2.028 0 3.673-.63 4.934-1.891 1.26-1.261 1.891-2.961 1.891-5.099v-26.561h14.966v45.393h-11.841v-19.078h.822c0 4.66-.589 8.511-1.768 11.553-1.179 3.043-2.919 5.304-5.222 6.785-2.302 1.48-5.153 2.22-8.552 2.22z"/><path d="m241.289 209.182c-3.18 0-6.071-.576-8.675-1.727s-4.852-2.755-6.744-4.811c-1.891-2.055-3.344-4.481-4.358-7.277s-1.521-5.839-1.521-9.128v-1.974c0-3.289.48-6.345 1.439-9.169.959-2.823 2.344-5.29 4.153-7.401 1.809-2.11 4.002-3.755 6.578-4.933 2.577-1.179 5.455-1.768 8.635-1.768 3.673 0 6.811.808 9.415 2.425 2.604 1.618 4.605 3.961 6.003 7.031s2.152 6.798 2.262 11.184l-3.454-2.549v-31.413h14.966v60.03h-11.841v-18.42h1.644c-.109 4.056-.932 7.579-2.467 10.566-1.535 2.988-3.659 5.291-6.373 6.908-2.713 1.617-5.934 2.426-9.662 2.426zm4.03-12.335c1.809 0 3.467-.411 4.975-1.233 1.507-.823 2.727-2.029 3.659-3.619s1.398-3.508 1.398-5.756v-2.796c0-2.193-.48-4.029-1.439-5.51-.96-1.48-2.193-2.617-3.701-3.412-1.507-.795-3.138-1.193-4.892-1.193-1.974 0-3.742.508-5.305 1.522-1.562 1.014-2.795 2.412-3.7 4.194-.905 1.781-1.357 3.851-1.357 6.208 0 2.358.452 4.4 1.357 6.127.905 1.726 2.138 3.07 3.7 4.029 1.563.959 3.331 1.439 5.305 1.439z"/><path d="m297.947 209.182c-3.179 0-6.071-.576-8.675-1.727s-4.852-2.755-6.743-4.811c-1.892-2.055-3.344-4.481-4.359-7.277-1.014-2.796-1.521-5.839-1.521-9.128v-1.974c0-3.289.48-6.345 1.439-9.169.96-2.823 2.344-5.29 4.153-7.401 1.809-2.11 4.002-3.755 6.579-4.933 2.576-1.179 5.454-1.768 8.634-1.768 3.673 0 6.812.808 9.416 2.425 2.604 1.618 4.605 3.961 6.003 7.031s2.151 6.798 2.261 11.184l-3.454-2.549v-31.413h14.967v60.03h-11.842v-18.42h1.645c-.11 4.056-.932 7.579-2.467 10.566-1.535 2.988-3.66 5.291-6.373 6.908-2.714 1.617-5.935 2.426-9.663 2.426zm4.03-12.335c1.809 0 3.467-.411 4.975-1.233 1.508-.823 2.727-2.029 3.659-3.619s1.398-3.508 1.398-5.756v-2.796c0-2.193-.479-4.029-1.439-5.51-.959-1.48-2.193-2.617-3.7-3.412-1.508-.795-3.139-1.193-4.893-1.193-1.974 0-3.742.508-5.304 1.522-1.563 1.014-2.796 2.412-3.701 4.194-.904 1.781-1.356 3.851-1.356 6.208 0 2.358.452 4.4 1.356 6.127.905 1.726 2.138 3.07 3.701 4.029 1.562.959 3.33 1.439 5.304 1.439z"/><path d="m336.268 225.793v-12.499h10.443c1.261 0 2.33-.165 3.208-.494.877-.329 1.589-.863 2.138-1.603.548-.74.959-1.768 1.233-3.084l10.197-45.804h14.144l-11.924 48.682c-.877 3.728-2.097 6.675-3.659 8.84-1.563 2.165-3.701 3.701-6.414 4.605-2.714.905-6.236 1.357-10.567 1.357zm14.391-19.078v-11.513h9.539v11.513zm-6.908 0-13.239-44.406h14.966l12.417 44.406z"/></g></svg>